# xmcd
#
# Track frame offsets: 
#        150
#        14274
#        26852
#        38887
#        60313
#        73032
#        84237
#        102051
#        118587
#        133832
#        148521
#        162594
#        180677
#        198114
#
# Disc length: 2868 seconds
#
# Revision: 1
# Processed by: cddbd v1.5.1PL0 Copyright (c) Steve Scherf et al.
# Submitted via: ExactAudioCopy v0.95b2
#
DISCID=bb0b320e
DTITLE=Kaimiòi - Esmu mâjâs
DYEAR=2003
DGENRE=Country
TTITLE0=Atceros tolaik
TTITLE1=Man tu esi tâ pati
TTITLE2=Upei
TTITLE3=Esmu mâjâs
TTITLE4=Mîlulît, mazulît
TTITLE5=Manî sçtais tumðais grauds
TTITLE6=Pasaule ir viena
TTITLE7=Paliec
TTITLE8=Solveigai
TTITLE9=Tikai vçjð!
TTITLE10=Tava otra puse
TTITLE11=Vecajâ parkâ
TTITLE12=Mazliet rûgtenâ
TTITLE13=Tavs bruòinieks
EXTD=
EXTT0=
EXTT1=
EXTT2=
EXTT3=
EXTT4=
EXTT5=
EXTT6=
EXTT7=
EXTT8=
EXTT9=
EXTT10=
EXTT11=
EXTT12=
EXTT13=
PLAYORDER=
